<?xml version="1.0" encoding="UTF-8" standalone="no"?>
<svg
   version="1.0"
   width="400.000000pt"
   height="400.000000pt"
   viewBox="0 0 400.000000 400.000000"
   preserveAspectRatio="xMidYMid meet"
   id="svg953"
   sodipodi:docname="dtb.svg"
   inkscape:version="1.1.1 (3bf5ae0d25, 2021-09-20)"
   xmlns:inkscape="http://www.inkscape.org/namespaces/inkscape"
   xmlns:sodipodi="http://sodipodi.sourceforge.net/DTD/sodipodi-0.dtd"
   xmlns="http://www.w3.org/2000/svg"
   xmlns:svg="http://www.w3.org/2000/svg">
  <defs
     id="defs957" />
  <sodipodi:namedview
     id="namedview955"
     pagecolor="#ffffff"
     bordercolor="#666666"
     borderopacity="1.0"
     inkscape:pageshadow="2"
     inkscape:pageopacity="0.0"
     inkscape:pagecheckerboard="0"
     inkscape:document-units="pt"
     showgrid="false"
     inkscape:zoom="0.57872271"
     inkscape:cx="349.90851"
     inkscape:cy="263.51135"
     inkscape:window-width="2560"
     inkscape:window-height="1371"
     inkscape:window-x="0"
     inkscape:window-y="32"
     inkscape:window-maximized="1"
     inkscape:current-layer="svg953" />
  <g
     transform="translate(0.000000,400.000000) scale(0.100000,-0.100000)"
     fill="#333333"
     stroke="none"
     id="g951">
    <path
       d="M1902 3759 c-120 -18 -315 -93 -403 -155 -30 -20 -67 -47 -84 -58 -35 -24 -139 -109 -143 -116 -1 -3 -30 -35 -65 -71 -88 -94 -169 -247 -207 -392 -40 -154 -62 -295 -62 -402 0 -139 38 -223 62 -136 9 33 15 41 34 41 15 0 44 21 83 63 77 79 173 163 232 203 25 17 79 54 120 82 41 29 78 52 83 52 4 0 35 13 68 29 129 63 319 87 545 70 167 -12 199 -19 318 -65 109 -42 173 -74 247 -124 30 -20 69 -42 85 -49 32 -13 86 -60 263 -233 62 -60 118 -108 125 -105 42 14 46 193 6 370 -39 178 -80 342 -97 387 -40 111 -234 335 -334 386 -18 9 -40 22 -48 30 -62 54 -351 163 -485 183 -109 16 -274 21 -343 10z"
       id="path917" />
    <path
       d="M1575 2553 c-88 -7 -175 -13 -194 -13 -77 1 -134 -42 -177 -133 -16 -33 -20 -35 -91 -46 -40 -6 -83 -11 -93 -11 -18 0 -20 -7 -20 -72 0 -55 6 -82 25 -122 13 -28 33 -93 44 -144 11 -51 32 -119 47 -152 22 -49 33 -61 64 -74 75 -30 168 -39 344 -33 173 6 231 14 297 43 56 24 103 99 128 202 30 122 96 190 157 161 37 -18 90 -99 98 -150 8 -53 57 -149 95 -186 45 -46 134 -64 331 -70 177 -6 290 6 350 35 49 24 85 100 115 245 13 65 33 138 44 161 24 48 29 144 9 151 -7 3 -53 11 -103 18 -87 13 -91 14 -110 48 -57 99 -100 129 -180 128 -17 0 -88 4 -160 10 -234 20 -239 20 -274 -13 -60 -58 -48 -63 169 -71 85 -3 199 -11 254 -17 84 -9 103 -15 128 -37 l29 -26 -171 3 c-142 3 -195 -1 -313 -20 -199 -32 -470 -32 -677 1 -125 20 -169 23 -323 19 l-178 -5 22 23 c34 37 77 44 299 54 215 10 308 18 314 29 13 21 -74 82 -114 79 -14 0 -97 -7 -185 -15z m140 -233 c88 -13 153 -36 185 -66 31 -30 31 -93 1 -212 -32 -123 -87 -200 -157 -223 -23 -7 -124 -14 -244 -16 -191 -4 -209 -3 -262 17 -49 18 -60 27 -77 63 -24 51 -55 257 -46 312 9 67 39 92 130 114 91 22 348 28 470 11z m1191 -11 c68 -18 89 -27 111 -53 25 -30 26 -32 20 -146 -7 -121 -32 -227 -63 -261 -34 -37 -106 -49 -298 -49 -185 0 -260 11 -311 44 -52 34 -120 195 -132 311 -5 55 -3 63 21 92 49 59 154 80 394 82 145 1 186 -2 258 -20z"
       id="path919" />
    <path
       d="M1495 2261 c-16 -4 -41 -13 -55 -21 -40 -21 -110 -80 -110 -94 0 -13 118 -37 178 -35 37 1 37 1 7 9 -16 4 -48 8 -70 9 -37 1 -65 15 -65 31 0 13 36 46 63 58 39 17 61 16 53 -4 -8 -21 3 -62 17 -66 7 -2 48 -1 92 2 l80 5 5 35 c4 28 9 35 25 33 11 -1 -2 9 -30 22 -51 25 -125 31 -190 16z m70 -51 c3 -6 -1 -13 -10 -16 -19 -8 -30 0 -20 15 8 14 22 14 30 1z"
       id="path921" />
    <path
       d="M2460 2250 c-30 -11 -56 -20 -57 -20 -2 0 -3 -5 -3 -10 0 -7 6 -7 19 0 33 17 41 12 41 -29 l0 -40 88 -3 c48 -2 91 0 97 5 5 4 9 25 9 47 -2 45 2 46 54 25 46 -20 82 -53 82 -77 0 -15 -9 -18 -52 -19 -29 0 -73 -4 -98 -9 -32 -7 -10 -8 75 -4 65 2 123 8 128 13 13 13 -59 84 -113 111 -64 34 -194 38 -270 10z m65 -40 c3 -6 -1 -13 -10 -16 -19 -8 -30 0 -20 15 8 14 22 14 30 1z"
       id="path923" />
    <path
       d="m 977,2070 c -3,-14 -8,-47 -11,-75 -3,-27 -9,-69 -14,-93 -5,-23 -6,-45 -1,-48 4,-2 6,-10 4,-17 -2,-7 -6,-72 -9,-145 -6,-138 0,-204 15,-180 5,7 9,-27 9,-83 0,-104 8,-162 20,-154 4,3 12,-36 16,-85 5,-50 13,-90 19,-90 5,1 15,-25 21,-57 7,-32 18,-71 24,-88 11,-28 13,-28 20,-10 7,17 9,18 9,2 1,-24 56,-143 70,-151 6,-4 11,0 12,11 0,10 8,-2 16,-27 12,-34 18,-40 22,-27 5,13 17,-4 45,-64 22,-46 41,-76 45,-70 5,7 20,-7 41,-36 45,-63 91,-109 105,-105 13,2 66,-46 100,-91 11,-15 31,-34 44,-43 23,-16 24,-16 19,4 -5,16 9,10 66,-30 39,-28 79,-57 89,-66 12,-10 17,-11 17,-3 0,8 11,4 30,-9 17,-12 30,-16 30,-10 0,7 12,3 28,-8 15,-10 49,-26 76,-36 57,-19 59,-19 52,-7 -3,5 11,3 32,-4 24,-9 43,-10 55,-4 9,6 22,7 27,4 13,-8 110,23 131,42 9,7 24,11 33,7 10,-4 25,1 38,12 12,11 18,14 15,7 -12,-20 11,-25 25,-5 12,16 74,62 142,106 25,16 28,16 23,2 -12,-30 16,-16 62,31 59,62 111,104 122,98 4,-3 13,4 19,16 7,11 14,18 17,15 3,-3 26,21 50,54 25,33 47,60 50,60 2,0 1,-5 -2,-10 -3,-6 -2,-10 2,-10 5,0 26,33 47,74 24,47 43,73 51,70 8,-3 17,8 25,28 9,27 13,30 19,15 5,-13 16,1 44,57 20,40 37,79 37,87 0,11 2,11 10,-1 7,-11 13,-6 26,25 9,22 19,59 22,82 2,24 8,40 12,38 8,-5 9,0 30,115 6,35 16,68 23,72 7,4 13,47 15,114 3,73 9,112 18,122 11,10 13,52 9,205 -4,195 -17,362 -29,374 -12,12 -16,-5 -27,-113 -5,-60 -16,-138 -25,-174 -8,-36 -14,-92 -14,-125 0,-42 -3,-56 -10,-45 -7,11 -10,5 -10,-23 0,-35 -28,-166 -37,-177 -2,-2 -8,1 -12,9 -5,8 -13,-17 -20,-64 -13,-87 -21,-108 -31,-79 -6,14 -9,9 -14,-23 -4,-24 -11,-43 -16,-43 -4,0 -10,-16 -13,-36 -4,-22 -21,-52 -46,-79 -41,-44 -51,-47 -51,-11 0,14 -8,5 -21,-24 -26,-58 -60,-95 -71,-78 -6,10 -15,4 -34,-19 -25,-33 -57,-43 -69,-23 -4,6 -10,8 -14,6 -3,-3 -22,41 -41,96 -37,110 -84,174 -119,163 -10,-3 -41,6 -69,20 -38,19 -70,26 -129,29 -64,3 -89,9 -140,35 -82,42 -122,42 -204,0 -55,-28 -76,-33 -146,-35 -64,-2 -95,-9 -135,-28 -38,-19 -54,-22 -60,-13 -5,8 -18,2 -41,-21 -34,-33 -70,-122 -84,-206 -3,-20 -10,-33 -15,-30 -6,4 -14,1 -18,-6 -11,-17 -62,8 -75,38 -11,25 -25,29 -25,6 0,-25 -17,-7 -54,58 -29,52 -35,58 -41,39 -6,-20 -9,-19 -40,19 -19,23 -36,56 -40,80 -4,22 -11,38 -15,35 -5,-3 -12,10 -16,30 -3,19 -12,35 -19,35 -8,0 -15,25 -20,76 -4,49 -10,72 -15,63 -5,-7 -11,-11 -13,-9 -8,9 -37,152 -38,184 0,26 -2,28 -9,11 -6,-14 -9,-2 -9,41 -1,34 -7,80 -15,102 -8,23 -18,96 -22,164 -4,68 -10,132 -14,143 -7,19 -8,18 -13,-5 z m 1126,-925 c 20,-8 48,-15 62,-15 14,0 53,-9 86,-20 33,-11 64,-18 68,-15 5,3 29,-4 52,-15 24,-11 55,-20 69,-20 19,0 21,-3 10,-9 -176.1277,27.246 -459.5314,-53.13794 -581,10 -12,6 -28,7 -37,3 -33.3656,-13.0433 -139.4463,-23.788 -143.902,5.4531 0,10 121.902,34.5469 153.902,31.5469 14,-1 43,5 63,13 21,9 54,16 74,16 28,0 66,13 87,29 1,1 18,-6 37,-14 z m -341,-116 c 76,-23 633.6104,-19.1521 625.6104,0.8479 145.7141,2.0942 36.0842,65.1439 122.3896,-5.8479 28,-24 30,-30 29,-92 -1,-37 -4,-78 -8,-92 -6,-22 -8,-23 -17,-7 -8,14 -14,4 -33,-55 -28,-85 -67,-149 -87,-141 -7,3 -25,-5 -40,-16 -19,-15 -41,-21 -80,-21 -29,0 -55,4 -58,9 -8,12 -81,23 -156,22 -97,-1 -114,-4 -128,-18 -29,-29 -128,-9 -162,32 -10,12 -15,13 -21,4 -5,-8 -18,4 -38,36 -33,53 -51,103 -51,148 0,28 -15,37 -23,15 -9,-28 -19,4 -24,81 -6,79 -6,80 26,111 25,26 34,30 46,20 7,-6 42,-20 77,-31 z"
       id="path925"
       sodipodi:nodetypes="ccccsccsccccccccccccccccccccscsccccccccccccccccscscscsccsscccccscccsccssscccccsccssccccccscccccccccccsccccccscccccccscccssccsccccccscccccccccccsccscccsccccc" />
    <path
       d="M1860 843 c0 -10 10 -39 23 -63 20 -41 28 -47 85 -66 35 -12 68 -26 75 -33 16 -16 32 -14 77 9 22 11 40 16 40 10 0 -21 27 -9 72 33 33 30 48 53 53 80 4 21 5 40 2 43 -3 4 -34 -1 -69 -10 -89 -22 -271 -17 -342 10 -11 4 -16 1 -16 -13z"
       id="path933" />
    <path
       d="m 3240,2035 c -2160,1310 -1080,655 0,0 z"
       id="path935"
       sodipodi:nodetypes="cc" />
  </g>
</svg>
